<svg width="25" height="24" viewBox="0 0 25 24" version="1.1" xmlns="http://www.w3.org/2000/svg" xmlns:xlink="http://www.w3.org/1999/xlink">
<title>Vector</title>
<desc>Created using Figma</desc>
<g id="Canvas" transform="translate(-289 686)">
<g id="Vector">
<use xlink:href="#path0_fill" transform="translate(289 -686)" fill="#F2C94C"/>
</g>
</g>
<defs>
<path id="path0_fill" d="M 16.7129 7.95583C 15.9667 7.23945 15.9667 6.07823 16.7129 5.36211C 17.4587 4.64573 18.6682 4.64573 19.4144 5.36211C 20.1607 6.07823 20.1607 7.23945 19.4144 7.95557C 18.6682 8.67195 17.4587 8.67195 16.7129 7.95583ZM 16.4282 16.4685C 17.0552 15.968 17.6634 15.4355 18.2477 14.8748C 20.4904 12.7216 22.2966 10.2312 23.4704 7.67346C 24.6096 5.19082 25.1289 2.70794 24.9729 0.49407L 24.4854 0.0260568C 22.1791 -0.123818 19.5934 0.374925 17.0072 1.46863C 14.3424 2.59559 11.7479 4.3291 9.50546 6.48227C 8.92146 7.04297 8.36721 7.62686 7.84546 8.22913C 5.79847 8.28857 3.76998 9.06792 2.20799 10.5677C 1.08299 11.647 0.347248 12.9589 0 14.3418C 1.36099 13.378 2.99549 12.9324 4.60923 13.0067C 4.49623 13.2314 4.38723 13.4569 4.28348 13.6833L 10.747 19.8884C 10.9822 19.7886 11.2174 19.6841 11.4512 19.575C 11.5282 21.1239 11.0642 22.6937 10.0605 24C 11.5012 23.6665 12.8674 22.9602 13.9922 21.8803C 15.5544 20.3806 16.3662 18.4335 16.4282 16.4685Z"/>
</defs>
</svg>
