<svg width="177" height="24" viewBox="0 0 177 24" version="1.1" xmlns="http://www.w3.org/2000/svg" xmlns:xlink="http://www.w3.org/1999/xlink">
<title>Group 2</title>
<desc>Created using Figma</desc>
<g id="Canvas" transform="translate(-2520 938)">
<g id="Group 2">
<g id="Group">
<g id="noun_113972_cc">
<g id="Vector">
<use xlink:href="#path0_fill" transform="matrix(1 2.02483e-17 -2.00529e-17 1 2522.83 -923.543)" fill="#F2C94C"/>
</g>
<g id="Vector">
<use xlink:href="#path1_fill" transform="translate(2520 -938)" fill="#F2C94C"/>
</g>
</g>
</g>
<g id="Turbo Track">
<use xlink:href="#path2_fill" transform="translate(2562 -941)" fill="#FFFFFF"/>
</g>
</g>
</g>
<defs>
<path id="path0_fill" d="M 4.00541e-08 1.36172L 5.69572 6.83001L 7.11422 5.98392L 0.880746 -2.61361e-07L 4.00541e-08 1.36172Z"/>
<path id="path1_fill" d="M 16.7129 7.95583C 15.9667 7.23945 15.9667 6.07823 16.7129 5.36211C 17.4587 4.64573 18.6682 4.64573 19.4144 5.36211C 20.1607 6.07823 20.1607 7.23945 19.4144 7.95557C 18.6682 8.67195 17.4587 8.67195 16.7129 7.95583ZM 16.4282 16.4685C 17.0552 15.968 17.6634 15.4355 18.2477 14.8748C 20.4904 12.7216 22.2966 10.2312 23.4704 7.67346C 24.6096 5.19082 25.1289 2.70794 24.9729 0.49407L 24.4854 0.0260568C 22.1791 -0.123818 19.5934 0.374925 17.0072 1.46863C 14.3424 2.59559 11.7479 4.3291 9.50546 6.48227C 8.92146 7.04297 8.36721 7.62686 7.84546 8.22913C 5.79847 8.28857 3.76998 9.06792 2.20799 10.5677C 1.08299 11.647 0.347248 12.9589 0 14.3418C 1.36099 13.378 2.99549 12.9324 4.60923 13.0067C 4.49623 13.2314 4.38723 13.4569 4.28348 13.6833L 10.747 19.8884C 10.9822 19.7886 11.2174 19.6841 11.4512 19.575C 11.5282 21.1239 11.0642 22.6937 10.0605 24C 11.5012 23.6665 12.8674 22.9602 13.9922 21.8803C 15.5544 20.3806 16.3662 18.4335 16.4282 16.4685Z"/>
<path id="path2_fill" d="M 14.9658 8.19287L 9.52148 8.19287L 9.52148 23L 5.85938 23L 5.85938 8.19287L 0.488281 8.19287L 0.488281 5.22656L 14.9658 5.22656L 14.9658 8.19287ZM 23.938 21.6572C 23.0672 22.7152 21.8628 23.2441 20.3247 23.2441C 18.9087 23.2441 17.8263 22.8372 17.0776 22.0234C 16.3371 21.2096 15.9587 20.0174 15.9424 18.4468L 15.9424 9.79199L 19.4702 9.79199L 19.4702 18.3247C 19.4702 19.7 20.0968 20.3877 21.3501 20.3877C 22.5464 20.3877 23.3683 19.9727 23.8159 19.1426L 23.8159 9.79199L 27.356 9.79199L 27.356 23L 24.0356 23L 23.938 21.6572ZM 37.439 13.1001C 36.9588 13.035 36.5356 13.0024 36.1694 13.0024C 34.8348 13.0024 33.96 13.4541 33.5449 14.3574L 33.5449 23L 30.0171 23L 30.0171 9.79199L 33.3496 9.79199L 33.4473 11.3667C 34.1553 10.1541 35.1359 9.54785 36.3892 9.54785C 36.7798 9.54785 37.146 9.60075 37.4878 9.70654L 37.439 13.1001ZM 51.0498 16.5181C 51.0498 18.634 50.5981 20.286 49.6948 21.4741C 48.7915 22.6541 47.5301 23.2441 45.9106 23.2441C 44.4784 23.2441 43.335 22.6948 42.4805 21.5962L 42.3218 23L 39.1479 23L 39.1479 4.25L 42.6758 4.25L 42.6758 10.9761C 43.4896 10.0239 44.5597 9.54785 45.8862 9.54785C 47.4976 9.54785 48.759 10.1419 49.6704 11.3301C 50.59 12.5101 51.0498 14.1743 51.0498 16.3228L 51.0498 16.5181ZM 47.522 16.2617C 47.522 14.9271 47.3104 13.9546 46.8872 13.3442C 46.464 12.7257 45.8333 12.4165 44.9951 12.4165C 43.8721 12.4165 43.099 12.8763 42.6758 13.7959L 42.6758 19.0083C 43.1071 19.936 43.8883 20.3999 45.0195 20.3999C 46.1589 20.3999 46.9076 19.8384 47.2656 18.7153C 47.4365 18.1782 47.522 17.3604 47.522 16.2617ZM 52.6855 16.2739C 52.6855 14.9637 52.9378 13.7959 53.4424 12.7705C 53.9469 11.7451 54.6712 10.9517 55.6152 10.3901C 56.5674 9.82861 57.6701 9.54785 58.9233 9.54785C 60.7056 9.54785 62.1582 10.0931 63.2812 11.1836C 64.4124 12.2741 65.0431 13.7552 65.1733 15.627L 65.1978 16.5303C 65.1978 18.5566 64.6322 20.1842 63.501 21.4131C 62.3698 22.6338 60.8521 23.2441 58.9478 23.2441C 57.0435 23.2441 55.5216 22.6338 54.3823 21.4131C 53.2511 20.1924 52.6855 18.5322 52.6855 16.4326L 52.6855 16.2739ZM 56.2134 16.5303C 56.2134 17.7835 56.4494 18.7438 56.9214 19.4111C 57.3934 20.0703 58.0688 20.3999 58.9478 20.3999C 59.8022 20.3999 60.4696 20.0744 60.9497 19.4233C 61.4299 18.7642 61.6699 17.7144 61.6699 16.2739C 61.6699 15.0451 61.4299 14.0929 60.9497 13.4175C 60.4696 12.742 59.7941 12.4043 58.9233 12.4043C 58.0607 12.4043 57.3934 12.742 56.9214 13.4175C 56.4494 14.0848 56.2134 15.1224 56.2134 16.5303ZM 86.4746 8.19287L 81.0303 8.19287L 81.0303 23L 77.3682 23L 77.3682 8.19287L 71.9971 8.19287L 71.9971 5.22656L 86.4746 5.22656L 86.4746 8.19287ZM 94.9585 13.1001C 94.4784 13.035 94.0552 13.0024 93.689 13.0024C 92.3543 13.0024 91.4795 13.4541 91.0645 14.3574L 91.0645 23L 87.5366 23L 87.5366 9.79199L 90.8691 9.79199L 90.9668 11.3667C 91.6748 10.1541 92.6554 9.54785 93.9087 9.54785C 94.2993 9.54785 94.6655 9.60075 95.0073 9.70654L 94.9585 13.1001ZM 103.955 23C 103.792 22.6826 103.674 22.2879 103.601 21.8159C 102.747 22.7681 101.636 23.2441 100.269 23.2441C 98.9746 23.2441 97.9004 22.8698 97.0459 22.1211C 96.1995 21.3724 95.7764 20.4284 95.7764 19.2891C 95.7764 17.8893 96.2931 16.8151 97.3267 16.0664C 98.3683 15.3177 99.8698 14.9393 101.831 14.9312L 103.455 14.9312L 103.455 14.1743C 103.455 13.564 103.296 13.0757 102.979 12.7095C 102.669 12.3433 102.177 12.1602 101.501 12.1602C 100.907 12.1602 100.439 12.3026 100.098 12.5874C 99.764 12.8722 99.5972 13.2629 99.5972 13.7593L 96.0693 13.7593C 96.0693 12.9943 96.3053 12.2863 96.7773 11.6353C 97.2493 10.9842 97.9167 10.4756 98.7793 10.1094C 99.6419 9.73503 100.61 9.54785 101.685 9.54785C 103.312 9.54785 104.602 9.95882 105.554 10.7808C 106.514 11.5946 106.995 12.742 106.995 14.2231L 106.995 19.9482C 107.003 21.2015 107.178 22.1496 107.52 22.7925L 107.52 23L 103.955 23ZM 101.038 20.5464C 101.558 20.5464 102.039 20.4325 102.478 20.2046C 102.917 19.9686 103.243 19.6553 103.455 19.2646L 103.455 16.9941L 102.136 16.9941C 100.37 16.9941 99.4303 17.6045 99.3164 18.8252L 99.3042 19.0327C 99.3042 19.4722 99.4588 19.8343 99.7681 20.1191C 100.077 20.404 100.5 20.5464 101.038 20.5464ZM 115.198 20.3999C 115.849 20.3999 116.378 20.2209 116.785 19.8628C 117.192 19.5047 117.403 19.0286 117.419 18.4346L 120.728 18.4346C 120.719 19.3298 120.475 20.1517 119.995 20.9004C 119.515 21.641 118.856 22.2188 118.018 22.6338C 117.188 23.0407 116.268 23.2441 115.259 23.2441C 113.371 23.2441 111.882 22.646 110.791 21.4497C 109.701 20.2453 109.155 18.5851 109.155 16.4692L 109.155 16.2373C 109.155 14.2028 109.696 12.5793 110.779 11.3667C 111.861 10.1541 113.346 9.54785 115.234 9.54785C 116.886 9.54785 118.209 10.0199 119.202 10.9639C 120.203 11.8997 120.711 13.1489 120.728 14.7114L 117.419 14.7114C 117.403 14.0278 117.192 13.4744 116.785 13.0513C 116.378 12.62 115.841 12.4043 115.173 12.4043C 114.351 12.4043 113.729 12.7054 113.306 13.3076C 112.891 13.9017 112.683 14.8701 112.683 16.2129L 112.683 16.5791C 112.683 17.9382 112.891 18.9147 113.306 19.5088C 113.721 20.1029 114.351 20.3999 115.198 20.3999ZM 127.539 17.7021L 126.27 18.9717L 126.27 23L 122.742 23L 122.742 4.25L 126.27 4.25L 126.27 14.6382L 126.953 13.7593L 130.334 9.79199L 134.57 9.79199L 129.797 15.2974L 134.985 23L 130.933 23L 127.539 17.7021Z"/>
</defs>
</svg>
